<?xml version="1.0" encoding="UTF-8"?>
<svg version="1.1" xmlns="http://www.w3.org/2000/svg" width="1080" height="1080">
<path d="M0 0 C1.23210709 -0.00315216 2.46421417 -0.00630432 3.73365784 -0.009552 C5.08668045 -0.00776078 6.43970275 -0.00570947 7.79272461 -0.00341797 C9.18078122 -0.00409182 10.56883771 -0.00506252 11.95689392 -0.00631714 C14.87312946 -0.00779372 17.78933442 -0.00564313 20.70556641 -0.00097656 C24.42189288 0.00468364 28.13814653 0.00146522 31.85447025 -0.00454903 C34.72601352 -0.00818753 37.59753997 -0.00700041 40.46908379 -0.00442123 C41.83765102 -0.0037591 43.20621984 -0.00455516 44.57478523 -0.00690079 C51.85420244 -0.01662792 58.91227489 0.21095387 66.13256836 1.12939453 C67.61159555 1.14970671 69.09104601 1.15005634 70.57006836 1.12939453 C74.13256836 1.12939453 74.13256836 1.12939453 76.13256836 2.12939453 C77.77474424 2.31185852 79.42185463 2.45102298 81.07006836 2.56689453 C86.84750715 3.04455679 92.44673691 4.02832876 98.13256836 5.12939453 C100.13164506 5.46822109 102.13112562 5.80483625 104.13256836 6.12939453 C104.13256836 6.78939453 104.13256836 7.44939453 104.13256836 8.12939453 C105.21538086 7.82001953 105.21538086 7.82001953 106.32006836 7.50439453 C109.67286436 7.05735507 111.04489369 7.8390906 114.13256836 9.12939453 C115.93882834 9.63157161 117.75173182 10.110376 119.57006836 10.56689453 C123.7388493 11.674839 127.33479969 13.04966407 131.13256836 15.12939453 C132.7907362 15.81692754 134.45716172 16.48500736 136.13256836 17.12939453 C137.79923503 17.7960612 139.46590169 18.46272786 141.13256836 19.12939453 C141.13256836 19.78939453 141.13256836 20.44939453 141.13256836 21.12939453 C142.12256836 20.79939453 143.11256836 20.46939453 144.13256836 20.12939453 C146.32006836 21.06689453 146.32006836 21.06689453 148.13256836 22.12939453 C148.13256836 22.78939453 148.13256836 23.44939453 148.13256836 24.12939453 C149.12256836 23.79939453 150.11256836 23.46939453 151.13256836 23.12939453 C153.72285611 24.11191747 155.72671554 25.54271431 158.00756836 27.12939453 C160.96210461 29.20019913 160.96210461 29.20019913 163.94506836 30.06689453 C169.20251644 31.81937723 173.86399144 34.7333472 178.57006836 37.62939453 C183.63346188 40.5933322 188.96769145 43.07282567 194.23803711 45.64501953 C199.45327148 48.21052613 204.37335987 50.79794859 209.13256836 54.12939453 C210.45172656 54.82368832 211.77906242 55.50469948 213.13256836 56.12939453 C213.13256836 56.78939453 213.13256836 57.44939453 213.13256836 58.12939453 C214.06069336 58.25314453 214.98881836 58.37689453 215.94506836 58.50439453 C219.13256836 59.12939453 219.13256836 59.12939453 222.13256836 61.12939453 C222.13256836 61.78939453 222.13256836 62.44939453 222.13256836 63.12939453 C222.83381836 63.21189453 223.53506836 63.29439453 224.25756836 63.37939453 C227.78955815 64.30078317 230.15185193 66.05585267 233.13256836 68.12939453 C234.12256836 68.45939453 235.11256836 68.78939453 236.13256836 69.12939453 C236.13256836 69.78939453 236.13256836 70.44939453 236.13256836 71.12939453 C237.27725586 71.31501953 237.27725586 71.31501953 238.44506836 71.50439453 C241.13256836 72.12939453 241.13256836 72.12939453 244.13256836 74.12939453 C244.13256836 74.78939453 244.13256836 75.44939453 244.13256836 76.12939453 C244.84928711 76.22736328 245.56600586 76.32533203 246.30444336 76.42626953 C249.54207065 77.23120449 251.61945102 78.52115772 254.38256836 80.37939453 C259.18510558 83.5398159 264.06659387 86.41503289 269.13256836 89.12939453 C269.13256836 89.78939453 269.13256836 90.44939453 269.13256836 91.12939453 C269.83897461 91.21189453 270.54538086 91.29439453 271.27319336 91.37939453 C274.81116703 92.30738763 276.97345508 93.9279034 279.88256836 96.12939453 C281.32889648 97.21220703 281.32889648 97.21220703 282.80444336 98.31689453 C285.13256836 100.12939453 285.13256836 100.12939453 286.13256836 101.12939453 C286.23032125 102.64777119 286.25812333 104.17069969 286.2584095 105.69221973 C286.26232112 107.18065772 286.26232112 107.18065772 286.26631176 108.69916517 C286.26408104 109.80244411 286.26185032 110.90572305 286.259552 112.04243469 C286.26111199 113.20427928 286.26267198 114.36612386 286.26427925 115.56317586 C286.2675925 118.80265523 286.26638006 122.04209755 286.26329303 125.28157604 C286.2610407 128.76974051 286.26451775 132.25789978 286.26727295 135.74606323 C286.27173186 142.58597586 286.27075352 149.42587755 286.26786031 156.26579062 C286.2656062 161.82399121 286.26529379 167.38218872 286.26638412 172.94038963 C286.26661397 174.12492099 286.26661397 174.12492099 286.26684847 175.33338227 C286.26716818 176.93742282 286.26749239 178.54146336 286.26782106 180.1455039 C286.27067635 195.20638984 286.26738835 210.2672697 286.26202069 225.32815465 C286.25755521 238.25791669 286.25832639 251.18766976 286.26293945 264.11743164 C286.26828883 279.11806215 286.27039891 294.11868733 286.26732719 309.11931866 C286.26700863 310.71852982 286.26669426 312.31774098 286.26638412 313.91695213 C286.26622985 314.70386572 286.26607557 315.49077931 286.26591662 316.30153877 C286.26505237 321.85309433 286.26651244 327.40464651 286.26886368 332.95620155 C286.27166601 339.72190292 286.27091433 346.48759268 286.26558293 353.25329272 C286.2629514 356.70688113 286.26193159 360.16045019 286.26523209 363.61403847 C286.26795025 367.35451299 286.26455413 371.09493246 286.259552 374.83540344 C286.26178272 375.93199022 286.26401345 377.028577 286.26631176 378.15839368 C286.26370402 379.15850892 286.26109627 380.15862415 286.2584095 381.18904591 C286.25824715 382.05274731 286.2580848 382.9164487 286.25791752 383.80632287 C286.13645336 386.05739454 285.72562418 387.96227226 285.13256836 390.12939453 C284.98819336 391.22251953 284.84381836 392.31564453 284.69506836 393.44189453 C284.12967089 397.14838905 283.22083607 400.54451265 282.13256836 404.12939453 C281.75519556 405.44121427 281.38012488 406.75369885 281.00756836 408.06689453 C280.71881836 409.07751953 280.43006836 410.08814453 280.13256836 411.12939453 C279.47256836 411.12939453 278.81256836 411.12939453 278.13256836 411.12939453 C278.33881836 411.72751953 278.54506836 412.32564453 278.75756836 412.94189453 C279.13256836 415.12939453 279.13256836 415.12939453 277.13256836 418.12939453 C277.13256836 418.78939453 277.13256836 419.44939453 277.13256836 420.12939453 C276.47256836 420.12939453 275.81256836 420.12939453 275.13256836 420.12939453 C275.46256836 421.11939453 275.79256836 422.10939453 276.13256836 423.12939453 C275.38256836 424.94189453 275.38256836 424.94189453 274.13256836 427.12939453 C272.60502536 430.12337882 271.19614922 432.93865196 270.13256836 436.12939453 C269.47256836 436.12939453 268.81256836 436.12939453 268.13256836 436.12939453 C268.03459961 436.81517578 267.93663086 437.50095703 267.83569336 438.20751953 C266.98305444 441.75070795 265.54091503 444.63480323 263.88256836 447.87939453 C263.40895874 448.80691528 263.40895874 448.80691528 262.92578125 449.75317383 C251.54428115 471.92353814 251.54428115 471.92353814 247.13256836 474.12939453 C246.47701717 476.65672688 246.47701717 476.65672688 246.13256836 479.12939453 C245.47256836 479.12939453 244.81256836 479.12939453 244.13256836 479.12939453 C243.47256836 481.10939453 242.81256836 483.08939453 242.13256836 485.12939453 C241.47256836 485.12939453 240.81256836 485.12939453 240.13256836 485.12939453 C239.88506836 485.99564453 239.63756836 486.86189453 239.38256836 487.75439453 C237.5641935 492.66400664 235.51913858 496.20501438 231.13256836 499.12939453 C228.82788086 499.72705078 228.82788086 499.72705078 226.25756836 500.19189453 C225.41452148 500.34787109 224.57147461 500.50384766 223.70288086 500.66455078 C222.85467773 500.81794922 222.00647461 500.97134766 221.13256836 501.12939453 C219.83706055 501.39042969 219.83706055 501.39042969 218.51538086 501.65673828 C210.09809983 503.32639567 201.69731725 504.12939453 193.13256836 504.12939453 C192.80256836 504.45939453 192.47256836 504.78939453 192.13256836 505.12939453 C190.01191858 505.34444634 187.88517348 505.50016906 185.75756836 505.62939453 C174.80775338 506.26311299 174.80775338 506.26311299 163.94506836 507.69189453 C161.47740438 508.07575337 159.30512332 508.16012843 156.82006836 508.12939453 C155.60319336 508.12939453 154.38631836 508.12939453 153.13256836 508.12939453 C152.80256836 508.45939453 152.47256836 508.78939453 152.13256836 509.12939453 C148.73224182 509.18964395 145.34666306 509.14940486 141.94702148 509.09033203 C137.91097601 508.93932388 137.91097601 508.93932388 134.13256836 510.12939453 C131.79923503 510.12939453 129.46590169 510.12939453 127.13256836 510.12939453 C126.47256836 510.45939453 125.81256836 510.78939453 125.13256836 511.12939453 C123.7188711 511.20116492 122.30183037 511.21331903 120.88647461 511.19189453 C120.04922852 511.18416016 119.21198242 511.17642578 118.34936523 511.16845703 C116.58373939 511.14247284 114.81811438 511.11643143 113.05249023 511.09033203 C112.21395508 511.08259766 111.37541992 511.07486328 110.51147461 511.06689453 C109.74391846 511.05529297 108.9763623 511.04369141 108.18554688 511.03173828 C105.93108879 511.04611298 105.93108879 511.04611298 103.13256836 512.12939453 C100.61747576 512.19657564 98.12020103 512.12758778 95.60522461 512.06689453 C93.23330807 512.0203039 93.23330807 512.0203039 91.43603516 512.62939453 C88.19990737 513.33184177 85.11402093 513.22119003 81.80444336 513.19189453 C81.09660706 513.18810791 80.38877075 513.18432129 79.65948486 513.18041992 C76.64474249 513.16416213 73.63013827 513.13615696 70.61547852 513.10888672 C68.40764003 513.09063615 66.19982458 513.07864224 63.99194336 513.06689453 C62.01919434 513.04949219 62.01919434 513.04949219 60.0065918 513.03173828 C56.7574922 513.11364147 53.68856744 513.46144061 50.47610474 513.90008545 C45.18649886 514.41765995 39.85231311 514.27085439 34.54272461 514.26220703 C33.24362656 514.26316376 31.9445285 514.26412048 30.60606384 514.2651062 C27.86692097 514.26657328 25.1278109 514.26446099 22.38867188 514.25976562 C18.90120099 514.25407462 15.4138072 514.25734969 11.92633915 514.26333809 C8.56929502 514.26784913 5.21227092 514.26467752 1.85522461 514.26220703 C-0.00609352 514.26524338 -0.00609352 514.26524338 -1.90501404 514.26834106 C-7.62965894 514.25298027 -13.20321792 514.08220566 -18.88124084 513.35177612 C-22.04069046 512.99803194 -25.17589346 513.0366877 -28.35180664 513.06689453 C-29.01529114 513.07068115 -29.67877563 513.07446777 -30.36236572 513.07836914 C-32.44745977 513.0904107 -34.53240326 513.10904334 -36.61743164 513.12939453 C-39.38305298 513.15611551 -42.14860418 513.17601862 -44.91430664 513.19189453 C-46.73720215 513.20929688 -46.73720215 513.20929688 -48.59692383 513.22705078 C-51.50361994 513.14025782 -54.04309546 512.77165974 -56.86743164 512.12939453 C-58.24184165 512.08911878 -59.6181078 512.08627849 -60.99243164 512.12939453 C-64.86743164 512.12939453 -64.86743164 512.12939453 -67.86743164 511.12939453 C-69.29335463 511.07114036 -70.72197614 511.06797245 -72.14868164 511.10205078 C-73.40334229 511.12235352 -73.40334229 511.12235352 -74.68334961 511.14306641 C-76.01197021 511.16723633 -76.01197021 511.16723633 -77.36743164 511.19189453 C-83.87852357 511.26124754 -89.84192673 511.01055125 -96.21508789 509.57080078 C-100.66521859 508.83020466 -105.10824546 509.03878874 -109.60571289 509.15673828 C-112.81386955 509.12984355 -115.71405527 508.68134236 -118.86743164 508.12939453 C-120.45026418 508.08957484 -122.03470042 508.08573298 -123.61743164 508.12939453 C-127.6480768 508.23907195 -127.6480768 508.23907195 -129.86743164 507.12939453 C-131.84253037 506.91995844 -133.82314846 506.76135631 -135.80493164 506.62939453 C-136.96379883 506.54689453 -138.12266602 506.46439453 -139.31665039 506.37939453 C-140.4884082 506.29689453 -141.66016602 506.21439453 -142.86743164 506.12939453 C-144.95133792 505.97005164 -147.03475603 505.80408816 -149.11743164 505.62939453 C-150.00946289 505.55720703 -150.90149414 505.48501953 -151.82055664 505.41064453 C-153.86743164 505.12939453 -153.86743164 505.12939453 -154.86743164 504.12939453 C-156.40910046 504.10872081 -157.95155392 504.1383595 -159.49243164 504.19189453 C-164.00268526 504.24939068 -167.52499327 503.37009121 -171.86743164 502.12939453 C-173.45130371 502.13485616 -175.03530928 502.17976612 -176.61743164 502.25439453 C-182.6102152 502.31814755 -187.70841528 501.27401106 -192.86743164 498.12939453 C-196.94288399 493.88164663 -200.09909082 489.44818655 -201.95727539 483.84033203 C-202.55975548 480.98924182 -202.55975548 480.98924182 -204.86743164 480.12939453 C-205.36243164 478.64439453 -205.36243164 478.64439453 -205.86743164 477.12939453 C-206.52743164 477.12939453 -207.18743164 477.12939453 -207.86743164 477.12939453 C-207.99118164 476.32501953 -208.11493164 475.52064453 -208.24243164 474.69189453 C-208.44868164 473.84626953 -208.65493164 473.00064453 -208.86743164 472.12939453 C-209.52743164 471.79939453 -210.18743164 471.46939453 -210.86743164 471.12939453 C-212.23001068 469.26922824 -213.53409227 467.36590274 -214.80493164 465.44189453 C-215.49458008 464.40677734 -216.18422852 463.37166016 -216.89477539 462.30517578 C-218.75442837 459.31131861 -220.32840246 456.2969809 -221.86743164 453.12939453 C-222.73193574 451.54030608 -223.60605348 449.95638635 -224.49243164 448.37939453 C-225.65442254 446.30893801 -226.8056569 444.25294401 -227.86743164 442.12939453 C-227.53743164 441.46939453 -227.20743164 440.80939453 -226.86743164 440.12939453 C-227.85743164 439.79939453 -228.84743164 439.46939453 -229.86743164 439.12939453 C-229.53743164 438.13939453 -229.20743164 437.14939453 -228.86743164 436.12939453 C-229.85743164 435.79939453 -230.84743164 435.46939453 -231.86743164 435.12939453 C-231.53743164 434.13939453 -231.20743164 433.14939453 -230.86743164 432.12939453 C-231.85743164 431.79939453 -232.84743164 431.46939453 -233.86743164 431.12939453 C-234.92993164 428.37939453 -234.92993164 428.37939453 -235.86743164 425.12939453 C-236.51896724 423.45675482 -237.18708815 421.79052516 -237.86743164 420.12939453 C-238.5562525 418.44243326 -239.24375785 416.75493423 -239.92993164 415.06689453 C-240.2715332 414.23029297 -240.61313477 413.39369141 -240.96508789 412.53173828 C-241.77045603 410.38757636 -242.47446449 408.38531707 -242.86743164 406.12939453 C-242.53743164 405.46939453 -242.20743164 404.80939453 -241.86743164 404.12939453 C-242.52743164 404.12939453 -243.18743164 404.12939453 -243.86743164 404.12939453 C-244.88878611 399.29035586 -245.87656242 394.48474033 -246.42993164 389.56689453 C-246.4888089 386.30395954 -246.4888089 386.30395954 -247.86743164 385.12939453 C-247.95930796 383.60707788 -247.98088477 382.08047082 -247.9748621 380.55539608 C-247.97336975 379.56063729 -247.9718774 378.5658785 -247.97033983 377.54097551 C-247.96353604 376.43496809 -247.95673226 375.32896067 -247.94972229 374.18943787 C-247.94649316 373.02477102 -247.94326403 371.86010417 -247.93993706 370.66014439 C-247.92991628 367.41292765 -247.91536428 364.16576646 -247.89895427 360.91857684 C-247.88237038 357.42232356 -247.87155076 353.92605206 -247.86004639 350.42977905 C-247.83930233 344.3674455 -247.8148711 338.30513568 -247.78796577 332.24282646 C-247.74907003 323.47764572 -247.7156881 314.71245087 -247.68367051 305.94724263 C-247.63157892 291.72775114 -247.57500142 277.50828115 -247.515625 263.28881836 C-247.45794122 249.47242063 -247.40235639 235.6560171 -247.34960938 221.83959961 C-247.34635966 220.98856859 -247.34310994 220.13753758 -247.33976174 219.26071774 C-247.32347255 214.9915282 -247.30722479 210.7223385 -247.29099762 206.45314872 C-247.15623191 171.01187068 -247.01419535 135.57062484 -246.86743164 100.12939453 C-246.20743164 100.12939453 -245.54743164 100.12939453 -244.86743164 100.12939453 C-244.86743164 99.46939453 -244.86743164 98.80939453 -244.86743164 98.12939453 C-244.00118164 97.88189453 -243.13493164 97.63439453 -242.24243164 97.37939453 C-238.6844091 96.0616084 -235.94481614 94.32752631 -232.86743164 92.12939453 C-232.20743164 92.45939453 -231.54743164 92.78939453 -230.86743164 93.12939453 C-230.37243164 91.64439453 -230.37243164 91.64439453 -229.86743164 90.12939453 C-227.85133274 88.90533448 -225.83382224 88.1172578 -223.61743164 87.31689453 C-221.25208094 86.29549309 -219.33361816 85.20357398 -217.17993164 83.81689453 C-214.1937875 81.90083206 -211.18265897 80.24443844 -207.99243164 78.69189453 C-201.85714074 75.69514998 -196.02058868 72.21212499 -190.32446289 68.44970703 C-187.86743164 67.12939453 -187.86743164 67.12939453 -183.86743164 67.12939453 C-183.53743164 66.46939453 -183.20743164 65.80939453 -182.86743164 65.12939453 C-177.83395385 61.70662963 -172.53797277 58.81716362 -167.17993164 55.94189453 C-166.53846191 55.59690918 -165.89699219 55.25192383 -165.23608398 54.89648438 C-161.83842528 53.09398717 -158.43823011 51.54600638 -154.86743164 50.12939453 C-153.04161364 49.17529168 -151.2293177 48.19495655 -149.42993164 47.19189453 C-145.61188707 45.08433393 -141.78537297 43.04668497 -137.86743164 41.12939453 C-137.14297852 40.76201172 -136.41852539 40.39462891 -135.67211914 40.01611328 C-130.32887193 37.31098969 -124.93162297 34.77513683 -119.46899414 32.32080078 C-117.15718391 31.26208889 -114.88432134 30.15534432 -112.61743164 29.00439453 C-105.04476245 25.17207207 -97.08498693 22.1783323 -89.19165039 19.07861328 C-86.87227368 18.18171611 -86.87227368 18.18171611 -84.80493164 17.00439453 C-82.86743164 16.12939453 -82.86743164 16.12939453 -78.86743164 16.12939453 C-78.53743164 15.46939453 -78.20743164 14.80939453 -77.86743164 14.12939453 C-76.24118647 13.62119292 -74.61006105 13.12491489 -72.96118164 12.69580078 C-70.72842453 12.09179 -68.55665866 11.37538113 -66.36743164 10.62939453 C-62.56143747 9.34784996 -58.74313002 8.18640318 -54.86743164 7.12939453 C-54.23063477 6.95408203 -53.59383789 6.77876953 -52.93774414 6.59814453 C-48.25541976 5.35924158 -43.67676667 4.69048362 -38.86743164 4.12939453 C-38.16618164 3.94376953 -37.46493164 3.75814453 -36.74243164 3.56689453 C-34.1163964 2.95415298 -31.5585738 3.12939453 -28.86743164 3.12939453 C-27.19320178 2.83640431 -25.52564937 2.50249352 -23.86743164 2.12939453 C-19.19002124 1.15040166 -14.7933048 1.07664609 -10.03930664 1.19189453 C-6.58270617 1.09242401 -3.67263883 0.00268658 0 0 Z " fill="#013772" transform="translate(520.867431640625,154.87060546875)"/>
<path d="M0 0 C0.88042969 0.10054687 1.76085937 0.20109375 2.66796875 0.3046875 C3.94607422 0.46324219 3.94607422 0.46324219 5.25 0.625 C6.32701172 0.75261719 6.32701172 0.75261719 7.42578125 0.8828125 C12.10896675 1.48396675 12.10896675 1.48396675 13.25 2.625 C15.43292774 2.85981693 17.62203174 3.03863323 19.8125 3.1875 C21.60880859 3.31318359 21.60880859 3.31318359 23.44140625 3.44140625 C24.36824219 3.50199219 25.29507813 3.56257812 26.25 3.625 C26.25 4.285 26.25 4.945 26.25 5.625 C26.83007812 5.52960937 27.41015625 5.43421875 28.0078125 5.3359375 C33.16100571 4.60462625 36.29800698 4.87116914 41.25 6.625 C42.72844229 6.67128641 44.20894078 6.66738703 45.6875 6.625 C48.78540177 6.54238929 50.63326359 6.73649486 53.6875 7.625 C57.61273289 8.72681976 60.87589159 8.74406219 64.91796875 8.59765625 C67.21746895 8.62461856 69.03738095 9.04721081 71.25 9.625 C72.466875 9.625 73.68375 9.625 74.9375 9.625 C76.030625 9.625 77.12375 9.625 78.25 9.625 C78.745 10.12 78.745 10.12 79.25 10.625 C82.04553492 10.83687212 84.82537631 11.00148719 87.625 11.125 C95.84928571 11.49142857 95.84928571 11.49142857 99.25 12.625 C100.11625 12.625 100.9825 12.625 101.875 12.625 C102.65875 12.625 103.4425 12.625 104.25 12.625 C104.58 12.955 104.91 13.285 105.25 13.625 C108.55312897 13.69779623 111.8452085 13.62109386 115.1484375 13.5625 C118.25 13.625 118.25 13.625 121.25 14.625 C126.40152156 15.53857033 131.29700232 15.72207085 136.5 15.625 C143.84775087 15.49091696 143.84775087 15.49091696 147.25 16.625 C153.81575278 17.7278014 160.36299433 17.71967911 167 17.625 C168.82806392 17.59936095 170.65620021 17.57837417 172.484375 17.5625 C173.28069336 17.55089844 174.07701172 17.53929687 174.89746094 17.52734375 C177.25 17.625 177.25 17.625 179.62695312 18.125 C182.79763208 18.72938854 185.75682908 18.71941202 188.984375 18.6875 C190.92957031 18.67589844 190.92957031 18.67589844 192.9140625 18.6640625 C194.95216294 18.64548988 196.99023952 18.62509869 199.02832031 18.60449219 C201.01363669 18.58617212 202.99900913 18.57429425 204.984375 18.5625 C206.16225586 18.55089844 207.34013672 18.53929687 208.55371094 18.52734375 C212.25 18.625 212.25 18.625 216.20092773 19.12060547 C223.20317083 19.95447675 230.26015738 19.76867337 237.30078125 19.7578125 C238.84775304 19.75848726 240.39472473 19.75945873 241.94169617 19.76071167 C245.16662618 19.76217832 248.39152832 19.760066 251.61645508 19.75537109 C255.74672039 19.74965036 259.87692104 19.7529741 264.00718403 19.75894356 C267.1941934 19.76255669 270.38118742 19.76140753 273.56819725 19.75881577 C275.09161576 19.75814982 276.61503566 19.75896328 278.13845253 19.76129532 C280.26331918 19.76383681 282.38808064 19.75996122 284.51293945 19.75439453 C285.72045364 19.75359894 286.92796783 19.75280334 288.17207336 19.75198364 C290.75608207 19.64537719 292.78634777 19.31344228 295.25 18.625 C297.60449963 18.55429961 299.96094542 18.54078929 302.31640625 18.5625 C302.99170883 18.56628662 303.66701141 18.57007324 304.36277771 18.57397461 C306.51275113 18.58615356 308.66258805 18.60478366 310.8125 18.625 C313.64713187 18.65158951 316.48169662 18.67158239 319.31640625 18.6875 C321.2027478 18.70490234 321.2027478 18.70490234 323.12719727 18.72265625 C326.28278892 18.77319288 326.28278892 18.77319288 329.25 17.625 C330.77197437 17.55507239 332.29689006 17.54059339 333.8203125 17.5625 C334.7175 17.57023438 335.6146875 17.57796875 336.5390625 17.5859375 C338.40625447 17.6116564 340.27344215 17.63768986 342.140625 17.6640625 C347.92934258 17.71353872 353.5137246 17.39109182 359.25 16.625 C364.10704635 16.0661637 368.85586431 15.56686989 373.75 15.6875 C377.00306106 15.73868453 379.83124577 15.35585783 383 14.625 C388.25199981 13.44226618 393.29729369 13.50841628 398.66015625 13.65234375 C401.1804561 13.9277446 401.1804561 13.9277446 402.25 12.625 C404.25 12.625 406.25 12.625 408.25 12.625 C409.219375 12.46 410.18875 12.295 411.1875 12.125 C414.57879985 11.57131839 417.82025915 11.625 421.25 11.625 C421.58 11.295 421.91 10.965 422.25 10.625 C424.25 10.625 426.25 10.625 428.25 10.625 C428.889375 10.46 429.52875 10.295 430.1875 10.125 C433.19662814 9.39551439 436.16160149 9.625 439.25 9.625 C440.91821323 9.29949498 442.58499557 8.96653937 444.25 8.625 C445.7040625 8.6559375 445.7040625 8.6559375 447.1875 8.6875 C450.26637229 8.78587921 450.26637229 8.78587921 453.0625 7.625 C456.00520432 6.70179864 457.73874769 6.54429642 460.75 6.625 C463.70924233 6.70391313 465.38339242 6.58053586 468.25 5.625 C471.71755557 4.46914814 474.46851079 4.59065523 478.08203125 4.6875 C481.03044355 4.60250073 483.48649767 3.60757861 486.25 2.625 C488.25 2.625 490.25 2.625 492.25 2.625 C494.70407305 2.18616402 497.13274288 1.6590551 499.5703125 1.13671875 C503.76772249 0.33517253 507.99406456 -0.03090309 512.25 -0.375 C512.25 0.285 512.25 0.945 512.25 1.625 C513.735 1.13 513.735 1.13 515.25 0.625 C519.54508102 4.35493878 520.99314927 7.11419296 522.25 12.625 C522.90438441 14.62905227 523.57060826 16.62928677 524.25 18.625 C524.53875 19.511875 524.8275 20.39875 525.125 21.3125 C525.81584366 23.34665077 526.53494423 25.37178693 527.30078125 27.37890625 C527.86345703 28.86197266 527.86345703 28.86197266 528.4375 30.375 C528.80230469 31.31859375 529.16710937 32.2621875 529.54296875 33.234375 C530.25 35.625 530.25 35.625 529.25 37.625 C529.91 37.625 530.57 37.625 531.25 37.625 C530.92 38.945 530.59 40.265 530.25 41.625 C530.91 41.625 531.57 41.625 532.25 41.625 C533.25 44.625 534.25 47.625 535.25 50.625 C534.92 51.285 534.59 51.945 534.25 52.625 C534.91 52.625 535.57 52.625 536.25 52.625 C537.25 55.625 537.25 55.625 536.25 58.625 C536.91 58.625 537.57 58.625 538.25 58.625 C540.375 65.375 540.375 65.375 539.25 67.625 C539.91 67.625 540.57 67.625 541.25 67.625 C542.25 70.625 543.25 73.625 544.25 76.625 C543.92 77.285 543.59 77.945 543.25 78.625 C543.91 78.625 544.57 78.625 545.25 78.625 C546.85017927 84.16408208 547.9529602 88.2190796 545.25 93.625 C543.875 95.5 543.875 95.5 542.25 96.625 C540.93 96.625 539.61 96.625 538.25 96.625 C538.25 97.285 538.25 97.945 538.25 98.625 C537.198125 98.58375 536.14625 98.5425 535.0625 98.5 C531.39176386 98.40359103 531.39176386 98.40359103 528.75 99.625 C525.51394926 100.9194203 522.71518453 100.625 519.25 100.625 C518.445625 100.955 517.64125 101.285 516.8125 101.625 C513.85110919 102.7806647 511.37505294 102.65689652 508.23046875 102.5625 C505.37346866 102.65266174 502.93446132 103.69127433 500.25 104.625 C494.87068966 104.93534483 494.87068966 104.93534483 492.25 103.625 C492.25 104.285 492.25 104.945 492.25 105.625 C491.486875 105.604375 490.72375 105.58375 489.9375 105.5625 C487.14814214 105.49557159 487.14814214 105.49557159 484.25 106.625 C482.56632861 106.82670439 480.87773251 106.9888086 479.1875 107.125 C478.21554687 107.2075 477.24359375 107.29 476.2421875 107.375 C475.25476563 107.4575 474.26734375 107.54 473.25 107.625 C471.43704131 107.78660077 469.62449606 107.95294103 467.8125 108.125 C466.63880859 108.23328125 466.63880859 108.23328125 465.44140625 108.34375 C463.25185137 108.57869856 463.25185137 108.57869856 461.171875 109.16015625 C459.25 109.625 459.25 109.625 455.9375 109.5625 C452.25275823 109.46032114 452.25275823 109.46032114 448.875 110.625 C445.16356897 111.64884304 442.25439238 111.72331887 438.453125 111.6328125 C434.49128181 111.61876341 430.66216206 112.29911645 426.8125 113.1875 C424.45040625 113.5907843 422.38680095 113.65467603 420 113.625 C418.7625 113.625 417.525 113.625 416.25 113.625 C415.92 113.955 415.59 114.285 415.25 114.625 C413.25 114.625 411.25 114.625 409.25 114.625 C408.92 114.955 408.59 115.285 408.25 115.625 C406.439715 115.72379565 404.62547273 115.75471514 402.8125 115.75 C401.82378906 115.75257813 400.83507812 115.75515625 399.81640625 115.7578125 C397.25 115.625 397.25 115.625 395.25 114.625 C395.25 115.285 395.25 115.945 395.25 116.625 C394.28320312 116.61339844 393.31640625 116.60179687 392.3203125 116.58984375 C379.96594863 115.85969579 379.96594863 115.85969579 368.25 118.625 C366.89756083 118.69648199 365.54165633 118.70899454 364.1875 118.6875 C363.39085937 118.67976562 362.59421875 118.67203125 361.7734375 118.6640625 C359.25 118.625 359.25 118.625 356.7265625 118.5859375 C355.92992187 118.57820312 355.13328125 118.57046875 354.3125 118.5625 C353.58160156 118.55089844 352.85070312 118.53929687 352.09765625 118.52734375 C350.15365825 118.50676172 350.15365825 118.50676172 348.25 119.625 C345.68212365 119.69440206 343.13037682 119.62221807 340.5625 119.5625 C338.22231107 119.46264219 338.22231107 119.46264219 336.25 120.625 C334.20303776 120.69854576 332.15364398 120.70851441 330.10546875 120.6875 C328.87119141 120.67976562 327.63691406 120.67203125 326.36523438 120.6640625 C323.75846238 120.63813737 321.15169153 120.61209675 318.54492188 120.5859375 C316.68770508 120.57433594 316.68770508 120.57433594 314.79296875 120.5625 C313.65883545 120.55089844 312.52470215 120.53929687 311.35620117 120.52734375 C308.50921477 120.61685051 306.02665396 121.04384647 303.25 121.625 C301.66268874 121.69089088 300.0728847 121.710643 298.484375 121.6875 C297.59363281 121.67976562 296.70289063 121.67203125 295.78515625 121.6640625 C293.94400733 121.63823993 292.10286142 121.61220202 290.26171875 121.5859375 C289.36582031 121.57820312 288.46992187 121.57046875 287.546875 121.5625 C286.34562988 121.54509766 286.34562988 121.54509766 285.12011719 121.52734375 C282.69871004 121.60973256 280.38906854 121.8287307 277.98779297 122.12060547 C273.3596821 122.66079544 268.80419534 122.76987265 264.1484375 122.7578125 C263.30890533 122.75876923 262.46937317 122.75972595 261.60440063 122.76071167 C259.83799158 122.76138762 258.07157996 122.75957451 256.30517578 122.75537109 C253.65260996 122.75005533 251.00021661 122.75531517 248.34765625 122.76171875 C239.31864991 122.76488412 230.39171984 122.52884722 221.38623047 121.84326172 C217.61063074 121.58050396 213.90814602 121.55848315 210.125 121.625 C203.75702042 121.73455664 203.75702042 121.73455664 200.93603516 121.125 C197.90528329 120.56083168 195.11339015 120.52917957 192.03125 120.5625 C190.85175781 120.57023438 189.67226563 120.57796875 188.45703125 120.5859375 C186.62205078 120.60527344 186.62205078 120.60527344 184.75 120.625 C182.322962 120.65057469 179.89587056 120.67158446 177.46875 120.6875 C176.39560547 120.69910156 175.32246094 120.71070313 174.21679688 120.72265625 C171.43308347 120.63102645 168.96108418 120.22831418 166.25 119.625 C164.85474634 119.58477647 163.45766537 119.58182274 162.0625 119.625 C158.25 119.625 158.25 119.625 156.25 118.625 C152.46265846 118.56570698 148.68899639 118.60424176 144.90234375 118.6640625 C143.71705078 118.67566406 143.71705078 118.67566406 142.5078125 118.6875 C141.7873877 118.69910156 141.06696289 118.71070313 140.32470703 118.72265625 C138.16748827 118.62111618 136.32833124 118.19457793 134.25 117.625 C129.31053464 116.77621359 124.63246212 116.54341202 119.625 116.625 C115.29605829 116.69524652 111.4715122 116.54396864 107.25 115.625 C105.87558999 115.58472425 104.49932384 115.58188396 103.125 115.625 C99.25 115.625 99.25 115.625 96.25 114.625 C95.445625 114.625 94.64125 114.625 93.8125 114.625 C91.25 114.625 91.25 114.625 89.359375 114.12109375 C87.10751076 113.59148864 85.24329688 113.59330226 82.9375 113.6875 C79.82896834 113.7330648 77.86346527 113.51255353 74.8125 112.625 C71.59456178 111.7217191 69.52454636 111.54597626 66.25 111.625 C61.86895227 111.73056742 58.47288351 110.83153815 54.25 109.625 C51.69166179 109.55950654 49.15186425 109.62585869 46.59375 109.6875 C43.56655845 109.60677489 41.10499897 108.59691454 38.25 107.625 C35.95299617 107.52407716 33.69535165 107.55966125 31.3984375 107.65234375 C29.18546961 107.6241787 27.3797882 107.19265016 25.25 106.625 C24.38375 106.625 23.5175 106.625 22.625 106.625 C20.25 106.625 20.25 106.625 18.25 105.625 C16.89992606 105.44518043 15.54443896 105.30476633 14.1875 105.1875 C10.91642041 104.8619672 7.81822399 104.34026639 4.625 103.5625 C1.73185093 102.87317579 -0.40232396 102.625 -3.4375 102.625 C-6.99531239 102.625 -9.39954267 101.74181911 -12.75 100.625 C-13.925625 100.625 -15.10125 100.625 -16.3125 100.625 C-19.80547946 100.625 -21.58303181 99.924269 -24.75 98.625 C-25.678125 98.686875 -26.60625 98.74875 -27.5625 98.8125 C-32.07660439 98.54696445 -35.33771601 96.54542323 -38.75 93.625 C-40.66404197 90.41851811 -41.16533222 88.36298996 -40.75 84.625 C-39.32729338 79.20417622 -37.16943844 74.34148742 -34.58984375 69.38671875 C-33.53063427 67.16484211 -33.16357354 65.04735929 -32.75 62.625 C-31.81412819 59.60314886 -30.7786055 56.61635273 -29.75 53.625 C-29.358125 52.449375 -28.96625 51.27375 -28.5625 50.0625 C-28.294375 49.258125 -28.02625 48.45375 -27.75 47.625 C-27.09 47.625 -26.43 47.625 -25.75 47.625 C-25.935625 47.00625 -26.12125 46.3875 -26.3125 45.75 C-26.75 43.625 -26.75 43.625 -25.75 41.625 C-25.09 41.625 -24.43 41.625 -23.75 41.625 C-24.08 40.635 -24.41 39.645 -24.75 38.625 C-23.875 36.125 -23.875 36.125 -22.75 33.625 C-22.42 32.635 -22.09 31.645 -21.75 30.625 C-21.09 30.625 -20.43 30.625 -19.75 30.625 C-20.08 29.305 -20.41 27.985 -20.75 26.625 C-20.09 26.625 -19.43 26.625 -18.75 26.625 C-19.08 25.635 -19.41 24.645 -19.75 23.625 C-18.9375 21.25 -18.9375 21.25 -17.75 18.625 C-16.51333954 15.64246595 -15.4509458 12.7792561 -14.75 9.625 C-14.09 9.625 -13.43 9.625 -12.75 9.625 C-12.42 7.645 -12.09 5.665 -11.75 3.625 C-10.76 3.295 -9.77 2.965 -8.75 2.625 C-8.42 1.965 -8.09 1.305 -7.75 0.625 C-4.65038725 -0.40820425 -3.17995841 -0.36539895 0 0 Z " fill="#EA0102" transform="translate(286.75,654.375)"/>
<path d="M0 0 C36.52038218 0 36.52038218 0 49.625 1.625 C50.37473083 1.71369354 51.12446167 1.80238708 51.89691162 1.89376831 C98.59817742 7.48384831 147.08609432 33.66898567 186.55347538 58.95839596 C191.32505388 61.96898975 195.92614102 64.44404551 201.2052002 66.45106506 C208.28571496 69.44524649 214.3563554 72.71826913 219 79 C223.72129742 90.64876423 221.85888482 105.34393959 221.4307251 117.60172272 C221.29298521 122.18545233 221.28756286 126.76585414 221.27050781 131.35168457 C221.14506972 144.71550251 220.80999084 158.07668901 220.5 171.4375 C220.005 201.323125 219.51 231.20875 219 262 C146.73 262 74.46 262 0 262 C0 175.54 0 89.08 0 0 Z " fill="#FDFEFE" transform="translate(541,196)"/>
<path d="M0 0 C72.6 0 145.2 0 220 0 C220 69.63 220 139.26 220 211 C188 211 188 211 179 210 C176.50594998 209.93570379 174.01039081 209.91377171 171.515625 209.9375 C170.8521405 209.94128662 170.18865601 209.94507324 169.50506592 209.94897461 C167.41997187 209.96101617 165.33502838 209.97964881 163.25 210 C160.48437866 210.02672098 157.71882746 210.04662409 154.953125 210.0625 C153.13022949 210.07990234 153.13022949 210.07990234 151.27050781 210.09765625 C148.3638117 210.01086329 145.82433619 209.64226521 143 209 C141.62558999 208.95972425 140.24932384 208.95688396 138.875 209 C135 209 135 209 132 208 C130.57407701 207.94174583 129.1454555 207.93857792 127.71875 207.97265625 C126.88230957 207.98619141 126.04586914 207.99972656 125.18408203 208.01367188 C123.85546143 208.0378418 123.85546143 208.0378418 122.5 208.0625 C115.98890807 208.13185301 110.02550491 207.88115672 103.65234375 206.44140625 C99.20221305 205.70081012 94.75918619 205.9093942 90.26171875 206.02734375 C87.05356209 206.00044902 84.15337637 205.55194783 81 205 C79.41716746 204.96018031 77.83273122 204.95633845 76.25 205 C72.21935484 205.10967742 72.21935484 205.10967742 70 204 C68.948125 204.04125 67.89625 204.0825 66.8125 204.125 C61.56118348 202.57543119 60.65489626 199.94294942 57.99609375 195.3359375 C55.81550224 191.69166128 53.37258255 188.38053514 50.8125 185 C35.40998127 164.31056341 21.90081723 141.36629001 11 118 C10.65211426 117.26555664 10.30422852 116.53111328 9.94580078 115.77441406 C8.84491348 113.43949524 7.76304537 111.09668923 6.6875 108.75 C6.36152832 108.05342285 6.03555664 107.3568457 5.69970703 106.63916016 C-8.7770466 74.34718239 0 29.91677638 0 0 Z " fill="#FDFEFE" transform="translate(321,458)"/>
<path d="M0 0 C1.58367747 0.14204741 3.16693318 0.28880153 4.75 0.4375 C5.63171875 0.51871094 6.5134375 0.59992187 7.421875 0.68359375 C10.62728552 1.07698504 13.34985476 1.71885611 16.3125 3 C19.51910877 4.19315675 22.61124193 4.60132258 26 5 C26 5.66 26 6.32 26 7 C26.78375 6.814375 27.5675 6.62875 28.375 6.4375 C31 6 31 6 33 7 C33 7.66 33 8.32 33 9 C33.515625 8.79375 34.03125 8.5875 34.5625 8.375 C38.04647022 7.83900458 40.66718368 8.94753169 44 10 C45.66519519 10.34060811 47.33157466 10.67558396 49 11 C49.99 11.33 50.98 11.66 52 12 C52 12.66 52 13.32 52 14 C52.763125 13.814375 53.52625 13.62875 54.3125 13.4375 C57 13 57 13 60 14 C60 14.66 60 15.32 60 16 C61.3303125 15.690625 61.3303125 15.690625 62.6875 15.375 C66 15 66 15 68.3125 15.9375 C71.6754335 17.26703185 74.43568624 17.11088944 78.01171875 16.97265625 C80 17 80 17 82 18 C83.53541638 18.09572647 85.0748851 18.13074059 86.61328125 18.1328125 C87.53173828 18.13410156 88.45019531 18.13539063 89.39648438 18.13671875 C90.83991211 18.13091797 90.83991211 18.13091797 92.3125 18.125 C93.73852539 18.13080078 93.73852539 18.13080078 95.19335938 18.13671875 C96.11568359 18.13542969 97.03800781 18.13414062 97.98828125 18.1328125 C98.82915283 18.13168457 99.67002441 18.13055664 100.53637695 18.12939453 C103.10747977 17.99435494 105.48317221 17.52485356 108 17 C109.2065625 17.0309375 109.2065625 17.0309375 110.4375 17.0625 C113.09482631 17.1309891 113.09482631 17.1309891 115.8125 16 C119.8837835 14.72273459 122.7338343 14.65595438 127 15 C129.5 16.375 129.5 16.375 131 18 C131 18.66 131 19.32 131 20 C131.66 20 132.32 20 133 20 C133.80867674 22.33733665 134.12401827 23.61044569 133.36328125 26 C131.3276328 29.87454278 129.48232784 33.21413773 126 36 C125.34 36 124.68 36 124 36 C123.73445312 36.60070312 123.46890625 37.20140625 123.1953125 37.8203125 C121.95816082 40.07629497 120.8466667 41.25181393 118.875 42.875 C118.25367188 43.38804687 117.63234375 43.90109375 116.9921875 44.4296875 C115.01754003 45.98617433 113.01800039 47.50024096 111 49 C102.91866162 54.98820661 102.91866162 54.98820661 97 63 C96.34 63 95.68 63 95 63 C95.185625 63.94875 95.37125 64.8975 95.5625 65.875 C96 69 96 69 95 71 C95.66 71 96.32 71 97 71 C97.556875 71.5775 98.11375 72.155 98.6875 72.75 C101.55711651 75.54205931 104.47973295 77.10447159 108 79 C108 79.66 108 80.32 108 81 C108.99 80.67 109.98 80.34 111 80 C111.66 80.33 112.32 80.66 113 81 C113 81.66 113 82.32 113 83 C113.99 82.67 114.98 82.34 116 82 C118.25 82.75 118.25 82.75 121 84 C121.6084375 84.24234375 122.216875 84.4846875 122.84375 84.734375 C127.87820513 86.75641026 127.87820513 86.75641026 129 89 C129.7425 89.144375 130.485 89.28875 131.25 89.4375 C134.39368806 90.0805271 136.42949914 91.09048508 139 93 C139 93.99 139 94.98 139 96 C139.66 96.33 140.32 96.66 141 97 C141.25 103.625 141.25 103.625 139 107 C138.34 107 137.68 107 137 107 C136.67 108.32 136.34 109.64 136 111 C135.01 111 134.02 111 133 111 C132.67 111.99 132.34 112.98 132 114 C130.68 114 129.36 114 128 114 C128 114.66 128 115.32 128 116 C127.37351562 115.98839844 126.74703125 115.97679687 126.1015625 115.96484375 C125.28429687 115.95582031 124.46703125 115.94679688 123.625 115.9375 C122.81289063 115.92589844 122.00078125 115.91429687 121.1640625 115.90234375 C118.95062858 115.85533666 118.95062858 115.85533666 117 117 C114.55411979 117.09863171 112.13739328 117.13986454 109.69140625 117.1328125 C108.96888168 117.13376923 108.24635712 117.13472595 107.50193787 117.13571167 C105.97288933 117.13639252 104.44383791 117.13454486 102.91479492 117.13037109 C100.57529183 117.12502921 98.23598141 117.13031524 95.89648438 117.13671875 C94.41145791 117.1360578 92.92643156 117.13477629 91.44140625 117.1328125 C90.39129112 117.13584885 90.39129112 117.13584885 89.31996155 117.13894653 C86.26773217 117.12423541 83.92005075 116.97335025 81 116 C79.2505677 115.95542848 77.49956322 115.96090362 75.75 116 C71.38341609 116.04016569 67.31472829 115.73268971 63 115 C61.6047842 114.82824048 60.20891541 114.66171723 58.8125 114.5 C55 114 55 114 53.03515625 113.49609375 C50.88503649 112.97197627 48.82856153 112.75192897 46.625 112.5625 C42.85881696 112.17654405 39.55059514 111.36561351 36 110 C36 109.34 36 108.68 36 108 C35.01 107.505 35.01 107.505 34 107 C32.8125 104.0625 32.8125 104.0625 32 101 C32.33 100.34 32.66 99.68 33 99 C32.34 99 31.68 99 31 99 C31.495 97.02 31.495 97.02 32 95 C31.34 95 30.68 95 30 95 C21 68 21 68 20.25 65.125 C18.09910208 59.74775521 14.82762504 55.2184167 10 52 C10 51.34 10 50.68 10 50 C9.443125 49.938125 8.88625 49.87625 8.3125 49.8125 C5.03510391 48.66098245 3.3804232 46.4965414 1 44 C0.0925 43.278125 -0.815 42.55625 -1.75 41.8125 C-4 40 -4 40 -5 38 C-5.99 37.67 -6.98 37.34 -8 37 C-8.28875 36.195625 -8.5775 35.39125 -8.875 34.5625 C-9.75499574 31.75531022 -9.75499574 31.75531022 -12.5625 30.9375 C-13.366875 30.628125 -14.17125 30.31875 -15 30 C-15.85546875 28.3125 -15.85546875 28.3125 -16 26 C-14.671875 23.16015625 -14.671875 23.16015625 -12.75 20.0625 C-11.81414063 18.53302734 -11.81414063 18.53302734 -10.859375 16.97265625 C-10.24578125 15.99167969 -9.6321875 15.01070312 -9 14 C-6.90287137 10.55331367 -6.90287137 10.55331367 -5 7 C-4.34 7 -3.68 7 -3 7 C-3.33 6.01 -3.66 5.02 -4 4 C-3.01 3.67 -2.02 3.34 -1 3 C-0.67 2.01 -0.34 1.02 0 0 Z " fill="#EA0000" transform="translate(795,597)"/>
<path d="M0 0 C0.99 0.495 0.99 0.495 2 1 C2 1.66 2 2.32 2 3 C2.99 3.495 2.99 3.495 4 4 C5.39723338 6.31266214 6.7137615 8.62642587 8 11 C10.81280443 16.15234336 13.65692822 21.17111855 17 26 C16.34 26.33 15.68 26.66 15 27 C14.72929687 27.5878125 14.45859375 28.175625 14.1796875 28.78125 C12.63489669 31.68668437 10.6063464 33.34999066 8.125 35.5 C5.59731118 37.70323921 3.13032651 39.86457174 0.8046875 42.28125 C-1 44 -1 44 -3 44 C-3.33 44.66 -3.66 45.32 -4 46 C-6.56570268 48.71231426 -9.20081498 51.18836247 -12.125 53.5 C-14.8582816 55.87676661 -16.22929014 57.90125775 -18 61 C-18.66 61 -19.32 61 -20 61 C-19.690625 61.86625 -19.690625 61.86625 -19.375 62.75 C-18.90413615 65.57518308 -19.61934744 66.54550656 -21 69 C-21.36784131 70.3242287 -21.71202981 71.65613912 -22 73 C-22.66 73 -23.32 73 -24 73 C-23.67 73.99 -23.34 74.98 -23 76 C-23.8125 78.3125 -23.8125 78.3125 -25 81 C-25.33 82.0725 -25.66 83.145 -26 84.25 C-27 87 -27 87 -29 88 C-28.67 88.99 -28.34 89.98 -28 91 C-28.495 92.485 -28.495 92.485 -29 94 C-29.66 94 -30.32 94 -31 94 C-30.67 94.99 -30.34 95.98 -30 97 C-30.875 99.5 -30.875 99.5 -32 102 C-32.495 103.485 -32.495 103.485 -33 105 C-33.66 105 -34.32 105 -35 105 C-34.67 106.32 -34.34 107.64 -34 109 C-40.52287515 111.39921844 -45.98318223 113.26478558 -53 113 C-55.30367913 113.44771149 -57.56826695 114.0014097 -59.84765625 114.55859375 C-62.58399576 115.11976683 -65.21642897 115.06958928 -68 115 C-68.33 115.33 -68.66 115.66 -69 116 C-72.04304432 116.07266972 -75.07403966 115.99616309 -78.1171875 115.9375 C-81.07100267 115.85945053 -81.07100267 115.85945053 -84 117 C-86.49015245 117.0965246 -88.95143215 117.14001211 -91.44140625 117.1328125 C-92.52662819 117.13424759 -92.52662819 117.13424759 -93.6337738 117.13571167 C-95.16104215 117.13639142 -96.6883134 117.13455141 -98.21557617 117.13037109 C-100.55719458 117.12501214 -102.89862187 117.13032695 -105.24023438 117.13671875 C-106.72395876 117.13605808 -108.20768302 117.13477716 -109.69140625 117.1328125 C-110.39350723 117.13483673 -111.09560822 117.13686096 -111.81898499 117.13894653 C-116.77006447 117.11496776 -116.77006447 117.11496776 -119 116 C-120.43809264 116.00565066 -121.87622075 116.05258256 -123.3125 116.125 C-128.9734519 116.17028762 -131.50982343 114.38373538 -135.625 110.5625 C-136.40875 109.716875 -137.1925 108.87125 -138 108 C-138.598125 107.401875 -139.19625 106.80375 -139.8125 106.1875 C-141.67157857 102.76288158 -142.08036884 99.69527432 -141 96 C-137.24824326 91.2477748 -132.84627132 88.49266502 -127 87 C-125.845 86.505 -124.69 86.01 -123.5 85.5 C-120.36431347 84.15613435 -117.23277922 83.07759307 -114 82 C-112.88625 81.4121875 -112.88625 81.4121875 -111.75 80.8125 C-110.88375 80.4103125 -110.88375 80.4103125 -110 80 C-109.34 80.33 -108.68 80.66 -108 81 C-108 80.34 -108 79.68 -108 79 C-107.38511719 78.68546875 -106.77023438 78.3709375 -106.13671875 78.046875 C-105.32847656 77.61890625 -104.52023438 77.1909375 -103.6875 76.75 C-102.88699219 76.33234375 -102.08648437 75.9146875 -101.26171875 75.484375 C-98.78627026 73.85972832 -97.47130665 72.56535519 -96 70 C-95.64042111 67.64070358 -95.64042111 67.64070358 -95.8125 65.25 C-95.83957031 64.45078125 -95.86664063 63.6515625 -95.89453125 62.828125 C-95.94673828 61.92320312 -95.94673828 61.92320312 -96 61 C-96.99 60.67 -97.98 60.34 -99 60 C-100.32421875 58.58203125 -100.32421875 58.58203125 -101.6875 56.8125 C-105.74386689 51.88401423 -110.72604685 48.51596877 -116 45 C-116 44.34 -116 43.68 -116 43 C-116.556875 42.938125 -117.11375 42.87625 -117.6875 42.8125 C-121.04072809 41.63433878 -122.60149402 39.62162281 -125 37 C-125.60714844 36.39671875 -126.21429688 35.7934375 -126.83984375 35.171875 C-129.93234723 31.9592129 -132.36831687 29.28844907 -133.1875 24.8125 C-133 21 -133 21 -131.3125 18.0625 C-127.44068022 14.60925533 -123.98558472 14.87664342 -119 14.76953125 C-117 15 -117 15 -115.03515625 16.0078125 C-112.63559601 17.17765569 -111.08572243 17.17452295 -108.4375 17.0625 C-105.47171272 16.94746946 -103.881863 17.039379 -101 18 C-99.45785766 18.09235429 -97.9120913 18.13067655 -96.3671875 18.1328125 C-95.03494141 18.13474609 -95.03494141 18.13474609 -93.67578125 18.13671875 C-92.75152344 18.13285156 -91.82726562 18.12898437 -90.875 18.125 C-89.94300781 18.12886719 -89.01101562 18.13273438 -88.05078125 18.13671875 C-86.72240234 18.13478516 -86.72240234 18.13478516 -85.3671875 18.1328125 C-84.55362793 18.13168457 -83.74006836 18.13055664 -82.90185547 18.12939453 C-80.98949534 18.20865473 -80.98949534 18.20865473 -80 17 C-78.64583193 16.97925782 -77.29077421 17.00911182 -75.9375 17.0625 C-71.26374331 17.12184929 -67.49475996 16.25263802 -63 15 C-61.989375 14.835 -60.97875 14.67 -59.9375 14.5 C-56.52783073 13.91963076 -53.31372635 12.98830435 -50 12 C-46.32590404 10.93117208 -42.65491614 9.90461838 -38.9375 9 C-35.55907338 8.17009636 -32.29379002 7.12288296 -29 6 C-27.66923011 5.65657551 -26.33568021 5.32380126 -25 5 C-23.948125 4.690625 -22.89625 4.38125 -21.8125 4.0625 C-18.22937193 3.06392332 -14.65265087 2.23421461 -11.015625 1.46484375 C-3.93735849 -0.16754717 -3.93735849 -0.16754717 0 0 Z " fill="#EA0000" transform="translate(285,597)"/>
<path d="M0 0 C2.59953821 0.5835522 4.93831781 0.59098562 7.60229492 0.55810547 C8.64063477 0.55037109 9.67897461 0.54263672 10.7487793 0.53466797 C12.91805181 0.50876621 15.08732267 0.48272606 17.2565918 0.45654297 C22.70959845 0.41607539 27.80738344 0.67561891 33.20776367 1.49560547 C36.90588682 1.61614346 40.60281335 1.52166093 44.30151367 1.45654297 C49.53574122 1.40402564 54.71711245 1.63794896 59.93823242 1.98779297 C69.53801863 2.61052046 79.12264395 2.64713272 88.73974609 2.62597656 C91.66598582 2.62056716 94.59207514 2.62598457 97.51831055 2.63232422 C99.41349317 2.63166406 101.3086757 2.63038419 103.20385742 2.62841797 C104.49011269 2.63145432 104.49011269 2.63145432 105.80235291 2.634552 C110.87878237 2.61516272 115.84134446 2.30348029 120.88444519 1.71578979 C124.94683648 1.33079097 129.00686929 1.43028665 133.08276367 1.49560547 C134.72592558 1.52119989 136.36916689 1.54220272 138.01245117 1.55810547 C138.72385254 1.56970703 139.43525391 1.58130859 140.16821289 1.59326172 C142.20611513 1.56642243 142.20611513 1.56642243 144.11035156 0.99560547 C146.7778757 0.35969703 149.22032207 0.40153272 151.96166992 0.43310547 C153.06317383 0.44083984 154.16467773 0.44857422 155.29956055 0.45654297 C156.44489258 0.46943359 157.59022461 0.48232422 158.77026367 0.49560547 C161.04235166 0.52109159 163.31449514 0.54213236 165.58666992 0.55810547 C166.59286377 0.56970703 167.59905762 0.58130859 168.63574219 0.59326172 C171.32746513 0.61126374 171.32746513 0.61126374 174.20776367 -0.50439453 C179.05591498 -0.66335031 183.43256922 -0.45943342 188.20776367 0.49560547 C187.95858614 3.85950215 187.04934626 4.63602091 184.45776367 6.93310547 C183.9137793 7.35720703 183.36979492 7.78130859 182.80932617 8.21826172 C181.01154411 9.6032286 181.01154411 9.6032286 178.83276367 11.87060547 C176.66331808 14.04005106 174.46079492 16.05074104 172.14526367 18.05810547 C168.44423939 21.267046 165.02554331 24.63793414 161.64526367 28.18310547 C159.20776367 30.49560547 159.20776367 30.49560547 156.20776367 31.49560547 C154.53709234 33.49226145 152.87023381 35.49211581 151.20776367 37.49560547 C150.54776367 37.49560547 149.88776367 37.49560547 149.20776367 37.49560547 C149.20776367 38.15560547 149.20776367 38.81560547 149.20776367 39.49560547 C146.64629797 41.79209196 145.72808795 42.49560547 142.20776367 42.49560547 C141.87776367 43.48560547 141.54776367 44.47560547 141.20776367 45.49560547 C138.99291992 47.53857422 138.99291992 47.53857422 136.27026367 49.68310547 C135.37436523 50.39853516 134.4784668 51.11396484 133.55541992 51.85107422 C131.20776367 53.49560547 131.20776367 53.49560547 129.20776367 53.49560547 C128.87776367 54.15560547 128.54776367 54.81560547 128.20776367 55.49560547 C124.63084059 58.49560547 124.63084059 58.49560547 122.20776367 58.49560547 C121.87776367 59.15560547 121.54776367 59.81560547 121.20776367 60.49560547 C115.57239716 65.08774669 109.99816384 68.91525341 103.20776367 71.49560547 C101.53442328 72.48439752 99.86624545 73.48208883 98.20776367 74.49560547 C93.18336982 76.17040342 88.30690809 75.73176169 83.20776367 74.49560547 C83.20776367 73.83560547 83.20776367 73.17560547 83.20776367 72.49560547 C82.48588867 72.72248047 81.76401367 72.94935547 81.02026367 73.18310547 C77.38489438 73.58703539 76.19128561 72.50948278 73.20776367 70.49560547 C71.5540701 69.79737929 69.89049353 69.12061942 68.20776367 68.49560547 C68.20776367 67.83560547 68.20776367 67.17560547 68.20776367 66.49560547 C67.38276367 66.26873047 66.55776367 66.04185547 65.70776367 65.80810547 C61.54266881 64.2461949 57.70766937 62.2671044 54.20776367 59.49560547 C54.20776367 58.83560547 54.20776367 58.17560547 54.20776367 57.49560547 C53.48588867 57.24810547 52.76401367 57.00060547 52.02026367 56.74560547 C48.93169786 55.37290955 46.6976495 53.77207251 44.20776367 51.49560547 C44.20776367 50.83560547 44.20776367 50.17560547 44.20776367 49.49560547 C43.67151367 49.43373047 43.13526367 49.37185547 42.58276367 49.30810547 C39.03750211 48.09525283 36.94852447 46.04949621 34.20776367 43.49560547 C34.20776367 42.83560547 34.20776367 42.17560547 34.20776367 41.49560547 C32.88776367 41.16560547 31.56776367 40.83560547 30.20776367 40.49560547 C30.20776367 39.83560547 30.20776367 39.17560547 30.20776367 38.49560547 C29.65088867 38.26873047 29.09401367 38.04185547 28.52026367 37.80810547 C25.58577044 36.14258228 23.58555192 33.87339371 21.20776367 31.49560547 C20.21776367 31.16560547 19.22776367 30.83560547 18.20776367 30.49560547 C17.0348796 29.35623237 15.86741411 28.21029983 14.73901367 27.02685547 C12.28891073 24.57675253 9.62244455 22.37952315 6.97729492 20.14404297 C5.20776367 18.49560547 5.20776367 18.49560547 3.20776367 15.49560547 C2.21776367 15.16560547 1.22776367 14.83560547 0.20776367 14.49560547 C0.20776367 13.83560547 0.20776367 13.17560547 0.20776367 12.49560547 C-0.45223633 12.49560547 -1.11223633 12.49560547 -1.79223633 12.49560547 C-2.03973633 11.69123047 -2.28723633 10.88685547 -2.54223633 10.05810547 C-2.95473633 9.21248047 -3.36723633 8.36685547 -3.79223633 7.49560547 C-5.69402418 6.89499314 -5.69402418 6.89499314 -7.79223633 6.49560547 C-10.04223633 4.55810547 -10.04223633 4.55810547 -11.79223633 2.49560547 C-11.79223633 1.83560547 -11.79223633 1.17560547 -11.79223633 0.49560547 C-8.34261095 -1.22920722 -3.71168802 -1.04459167 0 0 Z " fill="#013570" transform="translate(453.792236328125,779.50439453125)"/>
<path d="M0 0 C7.26 0 14.52 0 22 0 C22.33 15.51 22.66 31.02 23 47 C30.33137736 38.54071843 37.65475113 30.08104434 44.9296875 21.57421875 C47.13197056 19.00440902 49.34757774 16.44667076 51.5703125 13.89453125 C52.16328125 13.21326172 52.75625 12.53199219 53.3671875 11.83007812 C54.51411667 10.51365831 55.66248871 9.19849379 56.8125 7.88476562 C57.33070313 7.28986328 57.84890625 6.69496094 58.3828125 6.08203125 C59.06947998 5.29662964 59.06947998 5.29662964 59.77001953 4.49536133 C61.2027324 2.80440602 61.2027324 2.80440602 63 0 C65.70556641 -0.34057617 65.70556641 -0.34057617 69.1015625 -0.29296875 C70.31328125 -0.28330078 71.525 -0.27363281 72.7734375 -0.26367188 C74.04445313 -0.23853516 75.31546875 -0.21339844 76.625 -0.1875 C77.90375 -0.17396484 79.1825 -0.16042969 80.5 -0.14648438 C83.66708282 -0.11103196 86.83333541 -0.06161441 90 0 C88.12734874 3.99807279 85.51887595 7.07817929 82.625 10.375 C81.53374492 11.63271772 80.44260218 12.89053292 79.3515625 14.1484375 C78.7937207 14.7887793 78.23587891 15.42912109 77.66113281 16.08886719 C74.59515516 19.61627357 71.56139679 23.17134175 68.52661133 26.72558594 C65.90968423 29.78649063 63.2753738 32.82980992 60.61328125 35.8515625 C59.78473633 36.79902344 59.78473633 36.79902344 58.93945312 37.765625 C57.88005249 38.97636858 56.81520103 40.1823712 55.74414062 41.3828125 C52.34978733 45.21791798 52.34978733 45.21791798 51 50 C51.88801188 51.80242422 51.88801188 51.80242422 53.39453125 53.43359375 C54.20204834 54.39676514 54.20204834 54.39676514 55.02587891 55.37939453 C55.61546387 56.05856934 56.20504883 56.73774414 56.8125 57.4375 C58.02614967 58.88032549 59.23837434 60.32435074 60.44921875 61.76953125 C61.05427246 62.4857666 61.65932617 63.20200195 62.28271484 63.93994141 C64.64705425 66.77620753 66.88804557 69.68696453 69.125 72.625 C72.54841376 77.11199862 76.00549832 81.56817264 79.5 86 C83.24555818 90.75815966 86.98046311 95.52424402 90.6875 100.3125 C91.12191406 100.87001953 91.55632812 101.42753906 92.00390625 102.00195312 C95 105.8841465 95 105.8841465 95 107 C71.18395242 108.77991784 71.18395242 108.77991784 64.625 105.11328125 C62.33571388 102.21265168 60.71279327 99.2739137 59 96 C57.12759927 93.32943516 55.12027088 90.76694237 53.125 88.1875 C52.10979157 86.82845431 51.09677544 85.46776827 50.0859375 84.10546875 C45.50624426 77.9802385 40.75447387 71.98988834 36 66 C34.86517799 67.09935882 33.73866374 68.20789479 32.640625 69.34399414 C31.44296915 70.55287801 30.19546457 71.71294769 28.921875 72.84155273 C24.36014286 77.2356043 22.48036284 80.40003911 22 86.78515625 C21.96056162 89.21061688 21.96131622 91.63702721 22 94.0625 C21.98839844 95.30966797 21.97679687 96.55683594 21.96484375 97.84179688 C21.94145166 100.89446412 21.96586928 103.94743393 22 107 C14.74 107 7.48 107 0 107 C0 71.69 0 36.38 0 0 Z " fill="#FBFBFC" transform="translate(610,505)"/>
<path d="M0 0 C0.7528125 0.41507812 1.505625 0.83015625 2.28125 1.2578125 C7.21742327 3.48208468 10.91496644 1.81590542 15.71875 0.0078125 C17.91377638 -0.853898 20.10115896 -1.73228055 22.28613281 -2.61914062 C30.09143522 -5.64029355 40.18573532 -7.04485906 48.21875 -4.3671875 C48.21875 17.0828125 48.21875 38.5328125 48.21875 60.6328125 C39.63875 61.6228125 31.05875 62.6128125 22.21875 63.6328125 C15.59170978 65.40142569 15.59170978 65.40142569 9.21875 67.6328125 C5.60970178 68.83582857 5.14189805 68.36687468 1.78125 66.8828125 C-9.68952529 62.46274042 -22.67900464 61.84303704 -34.78125 60.6328125 C-34.78125 39.1828125 -34.78125 17.7328125 -34.78125 -4.3671875 C-24.55217956 -7.77687765 -9.55584422 -4.69739533 0 0 Z " fill="#033874" transform="translate(645.78125,295.3671875)"/>
<path d="M0 0 C7.26 0 14.52 0 22 0 C22.33 15.18 22.66 30.36 23 46 C29.18486829 39.25287096 35.06009754 32.78896972 40.75390625 25.71484375 C43.86934959 21.94922093 47.1864165 18.38361025 50.49609375 14.7890625 C53.89481329 11.0032813 57.0924253 7.07864278 60.28515625 3.1171875 C62 1 62 1 63 0 C64.99964982 -0.08758003 67.0023611 -0.10696576 69.00390625 -0.09765625 C70.21884766 -0.09443359 71.43378906 -0.09121094 72.68554688 -0.08789062 C73.96494141 -0.07951172 75.24433594 -0.07113281 76.5625 -0.0625 C77.84576172 -0.05798828 79.12902344 -0.05347656 80.45117188 -0.04882812 C83.63416022 -0.03699545 86.81705762 -0.02051068 90 0 C90 2 90 2 87.8828125 4.1875 C87.42422852 4.62835938 86.96564453 5.06921875 86.49316406 5.5234375 C83.78769947 8.19882171 81.35344237 11.11581804 78.875 14 C78.3073291 14.65790527 77.7396582 15.31581055 77.15478516 15.99365234 C72.19730392 21.7485391 67.28492616 27.54105025 62.39111328 33.35009766 C59.86918501 36.34118071 57.34032944 39.3264043 54.8125 42.3125 C53.88148253 43.41273682 52.95049023 44.51299494 52.01953125 45.61328125 C51.35308594 46.40089844 50.68664062 47.18851563 50 48 C54.06003868 54.67403619 58.88296839 60.62637491 63.83666992 66.640625 C68.20706468 71.96806297 72.36046162 77.42486727 76.45263672 82.9675293 C80.77485586 88.78579072 85.33317817 94.39447778 89.98828125 99.94921875 C94 104.78890894 94 104.78890894 94 107 C71.27446766 109.52182604 71.27446766 109.52182604 64.72070312 105.65527344 C60.99786929 102.08402078 58.61638934 97.71557021 56.22851562 93.18505859 C54.27731388 89.71461829 51.78025742 86.74713599 49.25 83.6875 C45.17477689 78.58022573 41.31401095 73.35987006 37.55859375 68.01171875 C36.15111552 65.89507649 36.15111552 65.89507649 34 65 C33.64603149 65.85585693 33.64603149 65.85585693 33.28491211 66.72900391 C31.72462569 69.48670565 29.75431006 71.17512203 27.44140625 73.3359375 C21.67240085 79.63086906 21.75513431 85.38885669 21.9375 93.625 C21.93041016 94.91535156 21.92332031 96.20570313 21.91601562 97.53515625 C21.90433025 100.69020673 21.94664038 103.84537913 22 107 C14.74 107 7.48 107 0 107 C0 71.69 0 36.38 0 0 Z " fill="#043974" transform="translate(393,505)"/>
<path d="M0 0 C7.59 0 15.18 0 23 0 C23 9.9 23 19.8 23 30 C33.23 30 43.46 30 54 30 C54 37.26 54 44.52 54 52 C43.77 52 33.54 52 23 52 C23 79.39 23 106.78 23 135 C15.74 135 8.48 135 1 135 C1 107.61 1 80.22 1 52 C-9.56 52 -20.12 52 -31 52 C-31 44.74 -31 37.48 -31 30 C-20.77 30 -10.54 30 0 30 C0 20.1 0 10.2 0 0 Z " fill="#FCFCFD" transform="translate(418,271)"/>
<path d="M0 0 C6.90025117 -0.24258696 12.82831471 0.42431769 18.75 4.20703125 C23.63537015 9.06199453 26.73817684 14.48006735 27.125 21.39453125 C26.96576234 27.35599106 25.24156755 33.19848139 21.39453125 37.84375 C15.33459465 43.25382744 8.47364639 44.68669976 0.6875 45.39453125 C-0.08916016 45.47638672 -0.86582031 45.55824219 -1.66601562 45.64257812 C-5.88274661 46.06746465 -10.00779183 46.23924671 -14.25 46.20703125 C-14.67965041 40.60215018 -15.10682862 34.99708817 -15.53173828 29.3918457 C-15.67656978 27.48586971 -15.82207126 25.57994451 -15.96826172 23.67407227 C-16.17853024 20.93128393 -16.3863719 18.18832071 -16.59375 15.4453125 C-16.65937134 14.59616776 -16.72499268 13.74702301 -16.79260254 12.87214661 C-17.08511098 8.97387332 -17.33347402 5.11987605 -17.25 1.20703125 C-11.50403001 0.73103374 -5.75372237 0.36652318 0 0 Z " fill="#FEF7F7" transform="translate(671.25,695.79296875)"/>
<path d="M0 0 C5.61 0 11.22 0 17 0 C17.49371094 1.69769531 17.98742187 3.39539063 18.49609375 5.14453125 C19.14319878 7.36719635 19.79033586 9.58985211 20.4375 11.8125 C20.92573242 13.49182617 20.92573242 13.49182617 21.42382812 15.20507812 C21.73642578 16.27822266 22.04902344 17.35136719 22.37109375 18.45703125 C22.65911865 19.44678955 22.94714355 20.43654785 23.24389648 21.45629883 C23.79619405 23.31435124 24.38702436 25.16107308 25 27 C26.10697816 24.18857876 27.21063123 21.37592348 28.3125 18.5625 C28.62123047 17.77939453 28.92996094 16.99628906 29.24804688 16.18945312 C31.33855633 10.84215 33.22374504 5.45993448 35 0 C40.28 0 45.56 0 51 0 C51 14.85 51 29.7 51 45 C47.37 45 43.74 45 40 45 C39.505 32.13 39.505 32.13 39 19 C36.74005411 25.16237332 36.74005411 25.16237332 34.48266602 31.32568359 C34.20092529 32.09219238 33.91918457 32.85870117 33.62890625 33.6484375 C33.34088135 34.43395996 33.05285645 35.21948242 32.75610352 36.02880859 C32 38 32 38 31 40 C27.04 40 23.08 40 19 40 C16.02523975 32.92212217 14.06623585 26.5761981 12 19 C11.34 27.25 10.68 35.5 10 44 C6.37 44 2.74 44 -1 44 C-1.18641374 29.31474016 -0.60455305 14.67120709 0 0 Z " fill="#FDF6F6" transform="translate(477,701)"/>
<path d="M0 0 C1.07894531 0.04640625 2.15789062 0.0928125 3.26953125 0.140625 C4.35621094 0.17671875 5.44289063 0.2128125 6.5625 0.25 C7.80966797 0.31960938 7.80966797 0.31960938 9.08203125 0.390625 C11.62716371 6.87760895 13.65159755 13.44733086 15.58203125 20.140625 C15.87722656 21.14867187 16.17242187 22.15671875 16.4765625 23.1953125 C22.08203125 42.50578194 22.08203125 42.50578194 22.08203125 47.390625 C18.45203125 47.060625 14.82203125 46.730625 11.08203125 46.390625 C10.09203125 43.420625 9.10203125 40.450625 8.08203125 37.390625 C2.01506426 36.62021649 -3.80311848 36.29356388 -9.91796875 36.390625 C-11.23796875 38.700625 -12.55796875 41.010625 -13.91796875 43.390625 C-17.87796875 43.060625 -21.83796875 42.730625 -25.91796875 42.390625 C-21.356231 33.02564575 -16.58069884 23.79317092 -11.60546875 14.640625 C-11.09016602 13.68849121 -10.57486328 12.73635742 -10.04394531 11.75537109 C-9.55249023 10.85641113 -9.06103516 9.95745117 -8.5546875 9.03125 C-8.11858154 8.23235352 -7.68247559 7.43345703 -7.2331543 6.61035156 C-3.60224823 0.48222868 -3.60224823 0.48222868 0 0 Z " fill="#FDF6F6" transform="translate(351.91796875,690.609375)"/>
<path d="M0 0 C4.29 0 8.58 0 13 0 C14.98184106 5.58453001 16.9571461 11.17131294 18.92651367 16.76025391 C19.59693544 18.65997112 20.26911752 20.55906808 20.94311523 22.45751953 C21.91336639 25.19140802 22.87719893 27.92748787 23.83984375 30.6640625 C24.14091537 31.50804596 24.441987 32.35202942 24.75218201 33.22158813 C26.24083897 37.47363263 27.4373134 41.50486521 28 46 C24.37 46 20.74 46 17 46 C14 38.25 14 38.25 14 36 C13.38253906 36.01160156 12.76507813 36.02320313 12.12890625 36.03515625 C6.32474456 36.09699663 0.75661912 35.74278956 -5 35 C-5.309375 35.94875 -5.61875 36.8975 -5.9375 37.875 C-7 41 -7 41 -8 43 C-11.96 43 -15.92 43 -20 43 C-16.87942988 34.87271663 -13.24720995 27.07511852 -9.4375 19.25 C-8.85451622 18.04571882 -8.27183234 16.84129241 -7.68945312 15.63671875 C-5.15715603 10.40856212 -2.60531453 5.19221694 0 0 Z " fill="#FDF5F5" transform="translate(440,699)"/>
<path d="M0 0 C-0.51207144 3.75519057 -1.2175082 6.66688525 -3 10 C-4.13179687 9.98839844 -5.26359375 9.97679687 -6.4296875 9.96484375 C-7.91145669 9.95546546 -9.39322765 9.9463653 -10.875 9.9375 C-11.62136719 9.92912109 -12.36773438 9.92074219 -13.13671875 9.91210938 C-17.19845578 9.79311916 -17.19845578 9.79311916 -21 11 C-21 12.32 -21 13.64 -21 15 C-20.42556152 15.06469482 -19.85112305 15.12938965 -19.25927734 15.19604492 C-16.62812244 15.5048597 -14.00208726 15.84586904 -11.375 16.1875 C-10.47136719 16.28869141 -9.56773437 16.38988281 -8.63671875 16.49414062 C-2.56435316 17.3141316 0.72557653 18.55266296 5 23 C6.74335816 26.48671632 6.43142518 30.18800436 6 34 C3.76994762 39.27103289 0.1794901 41.75591838 -4.87890625 44.0859375 C-13.72110079 46.67551638 -22.77410709 46.0115898 -31 42 C-30.49287967 38.28111761 -29.88391785 35.26545761 -28 32 C-26.88625 32.495 -26.88625 32.495 -25.75 33 C-19.74346785 34.60174191 -12.9500309 34.98334363 -7 33 C-7.495 30.525 -7.495 30.525 -8 28 C-9.35931641 27.96132813 -9.35931641 27.96132813 -10.74609375 27.921875 C-19.2296797 27.52687206 -26.33853494 26.81392596 -33.0625 21.3125 C-34.59138065 17.54126108 -34.61900964 13.9992196 -34 10 C-31.61627191 5.14086198 -28.76397758 2.51681835 -24 0 C-15.78310238 -2.68306861 -8.18928326 -2.72976109 0 0 Z " fill="#FDF5F5" transform="translate(787,685)"/>
<path d="M0 0 C3.63 0 7.26 0 11 0 C11.33 5.61 11.66 11.22 12 17 C12.87140625 15.7728125 13.7428125 14.545625 14.640625 13.28125 C24.05582068 0.60940111 24.05582068 0.60940111 29.6015625 -1.12890625 C32.57455459 -1.06859495 35.14089314 -0.8011783 38 0 C36.40103806 3.6646479 34.11916577 6.44375586 31.5625 9.5 C28.96374287 12.61679603 26.40048625 15.72731135 24 19 C25.48021625 22.27441776 27.35393199 24.84723952 29.625 27.625 C30.32882812 28.49253906 31.03265625 29.36007812 31.7578125 30.25390625 C32.49773438 31.16011719 33.23765625 32.06632813 34 33 C35.50286984 34.85184132 37.0030049 36.70590643 38.5 38.5625 C39.1703125 39.38878906 39.840625 40.21507812 40.53125 41.06640625 C42 43 42 43 42 44 C30.88051955 45.37298463 30.88051955 45.37298463 26.49609375 42.171875 C24.48685662 39.86906812 22.71872311 37.52529832 21 35 C20.175 33.989375 19.35 32.97875 18.5 31.9375 C18.005 31.298125 17.51 30.65875 17 30 C13.87802522 31.3089572 13.87802522 31.3089572 12 34 C11.7724985 35.87056791 11.59037189 37.74685958 11.4375 39.625 C11.293125 41.39875 11.14875 43.1725 11 45 C7.37 45 3.74 45 0 45 C0 30.15 0 15.3 0 0 Z " fill="#FDF7F7" transform="translate(558,701)"/>
<path d="M0 0 C3.63 0.33 7.26 0.66 11 1 C10.34 6.94 9.68 12.88 9 19 C10.46373047 17.62714844 10.46373047 17.62714844 11.95703125 16.2265625 C13.2420832 15.02593002 14.5272452 13.82541532 15.8125 12.625 C16.45509766 12.02171875 17.09769531 11.4184375 17.75976562 10.796875 C18.38173828 10.21679688 19.00371094 9.63671875 19.64453125 9.0390625 C20.50075073 8.23782959 20.50075073 8.23782959 21.37426758 7.42041016 C23.98464609 5.13971003 25.38279902 3.99504256 28.91796875 4.0234375 C30.53638672 4.19746094 30.53638672 4.19746094 32.1875 4.375 C33.27417969 4.48585938 34.36085938 4.59671875 35.48046875 4.7109375 C36.31191406 4.80632813 37.14335937 4.90171875 38 5 C36.40700492 9.17542809 33.31866968 11.72890616 30.0625 14.625 C29.52431641 15.11484375 28.98613281 15.6046875 28.43164062 16.109375 C26.0363549 18.27133449 23.68937516 20.20708323 21 22 C21.51644226 27.2160668 24.19725763 31.07194551 26.875 35.4375 C29.77206338 40.21723714 32.58372757 44.95143079 35 50 C33.27002517 49.96667299 31.54073269 49.89697108 29.8125 49.8125 C28.84957031 49.77769531 27.88664062 49.74289062 26.89453125 49.70703125 C22.96892093 48.74814398 21.55770808 47.09617294 19 44 C17.65119191 41.77459709 16.37921721 39.50083341 15.1875 37.1875 C14.58292969 36.02605469 13.97835938 34.86460937 13.35546875 33.66796875 C12.90816406 32.78753906 12.46085937 31.90710938 12 31 C7.55937682 33.43020153 7.55937682 33.43020153 4.9765625 37.578125 C4.86054688 38.45984375 4.74453125 39.3415625 4.625 40.25 C4.49351562 41.14203125 4.36203125 42.0340625 4.2265625 42.953125 C4.15179688 43.62859375 4.07703125 44.3040625 4 45 C2.741875 45.020625 1.48375 45.04125 0.1875 45.0625 C-0.87404297 45.07990234 -0.87404297 45.07990234 -1.95703125 45.09765625 C-4 45 -4 45 -7 44 C-5.83505306 34.57312671 -4.43329535 25.19232699 -2.9375 15.8125 C-2.7631543 14.71365479 -2.58880859 13.61480957 -2.40917969 12.48266602 C-2.24192383 11.44295654 -2.07466797 10.40324707 -1.90234375 9.33203125 C-1.75273193 8.40108643 -1.60312012 7.4701416 -1.44897461 6.51098633 C-1.05762427 4.32227604 -0.53925918 2.15703671 0 0 Z " fill="#FDF6F6" transform="translate(287,682)"/>
<path d="M0 0 C0.74430265 8.65251825 1.18564485 17.3179137 1.375 26 C1.41302734 26.88324951 1.45105469 27.76649902 1.49023438 28.67651367 C1.55959383 34.05238124 0.85907686 37.44643417 -2.61376953 41.63720703 C-7.12589471 46.07304408 -13.4987509 47.23917019 -19.625 47.5625 C-25.11295853 47.32963047 -28.99963513 45.78336395 -33 42 C-37.00203993 36.68333649 -38.12324776 31.68432596 -38.31640625 25.14453125 C-38.33718735 24.48289474 -38.35796844 23.82125824 -38.37937927 23.13957214 C-38.44464727 21.03065148 -38.50365344 18.92160865 -38.5625 16.8125 C-38.60570689 15.38084685 -38.64932188 13.94920596 -38.69335938 12.51757812 C-38.80030506 9.01184846 -38.90163641 5.50598214 -39 2 C-35.37 2 -31.74 2 -28 2 C-26.70195838 8.38381127 -26.69705821 14.8095902 -26.5703125 21.30078125 C-26.38823977 26.6036494 -25.88437014 30.37266823 -23 35 C-21.56344146 35.08131463 -20.1255517 35.13933559 -18.6875 35.1875 C-17.88699219 35.22230469 -17.08648438 35.25710938 -16.26171875 35.29296875 C-13.9949111 35.16835615 -13.9949111 35.16835615 -12.37695312 33.92382812 C-10.27585145 30.98824635 -10.66333688 28.49415503 -10.70703125 24.92578125 C-10.71339851 23.90003242 -10.71339851 23.90003242 -10.71989441 22.8535614 C-10.73666647 20.67280439 -10.77431343 18.49297691 -10.8125 16.3125 C-10.82754886 14.83269565 -10.84123692 13.3528768 -10.85351562 11.87304688 C-10.88656431 8.24839664 -10.93833554 4.62428906 -11 1 C-7.2735915 -0.04702186 -3.86986958 -0.07442057 0 0 Z " fill="#FDF5F5" transform="translate(644,698)"/>
<path d="M0 0 C1.23556641 0.01740234 1.23556641 0.01740234 2.49609375 0.03515625 C3.32238281 0.04417969 4.14867187 0.05320312 5 0.0625 C5.63808594 0.07410156 6.27617188 0.08570313 6.93359375 0.09765625 C7.24784161 1.78483164 7.5598953 3.47241574 7.87109375 5.16015625 C8.04511719 6.09988281 8.21914063 7.03960938 8.3984375 8.0078125 C9.48340301 14.27210239 10.13845392 20.31236813 10.18359375 26.66015625 C10.20421875 27.38912109 10.22484375 28.11808594 10.24609375 28.86914062 C10.28082761 33.69280538 9.55051993 36.89927828 6.93359375 41.09765625 C1.67173011 46.21730736 -3.87159662 47.39376579 -11.06640625 47.47265625 C-15.12065085 47.38739348 -17.82803789 47.18965807 -21.62890625 45.72265625 C-31.80945359 34.75898988 -31.53246873 18.31256202 -31.06640625 4.09765625 C-28.31561741 3.18072664 -26.70691712 2.98879542 -23.87890625 3.03515625 C-21.99171875 3.06609375 -21.99171875 3.06609375 -20.06640625 3.09765625 C-19.98600098 3.88938232 -19.9055957 4.6811084 -19.82275391 5.49682617 C-19.45317553 9.09375695 -19.07241156 12.68941868 -18.69140625 16.28515625 C-18.56507813 17.53103516 -18.43875 18.77691406 -18.30859375 20.06054688 C-18.1796875 21.26259766 -18.05078125 22.46464844 -17.91796875 23.703125 C-17.80275879 24.80809326 -17.68754883 25.91306152 -17.56884766 27.05151367 C-17.07923129 30.01990209 -16.4004646 32.40553258 -15.06640625 35.09765625 C-12.00947303 36.62612286 -9.43656078 36.3300807 -6.06640625 36.09765625 C-3.76312771 35.06174719 -3.76312771 35.06174719 -2.06640625 33.09765625 C-1.5418091 30.24153209 -1.5418091 30.24153209 -1.75390625 27.03515625 C-1.78871094 25.87371094 -1.82351563 24.71226562 -1.859375 23.515625 C-2.08357341 19.81423623 -2.41784917 16.14434729 -2.83984375 12.4609375 C-3.20523904 8.64948662 -3.18789083 4.9244204 -3.06640625 1.09765625 C-2.06640625 0.09765625 -2.06640625 0.09765625 0 0 Z " fill="#FDF6F6" transform="translate(735.06640625,688.90234375)"/>
<path d="M0 0 C9 3 9 3 12 6 C12.36076355 8.90434265 12.36076355 8.90434265 12.34057617 12.4909668 C12.34123329 13.47185776 12.34123329 13.47185776 12.34190369 14.4725647 C12.33981539 16.63175423 12.31648388 18.79016505 12.29296875 20.94921875 C12.28737291 22.44708329 12.28310275 23.94495332 12.28010559 25.44282532 C12.2686558 29.38358746 12.23918778 33.32401745 12.20599365 37.26464844 C12.17529548 41.28641262 12.16160082 45.30823053 12.14648438 49.33007812 C12.11431793 57.22020444 12.06312028 65.11006089 12 73 C10.07420818 72.68596556 8.14873073 72.37000287 6.22338867 72.05322266 C4.61496346 71.78960434 4.61496346 71.78960434 2.9740448 71.5206604 C-0.28899443 70.94940629 -3.47333657 70.17349982 -6.6875 69.375 C-17.63815652 67.09552234 -28.87183903 67.74243426 -40 68 C-36.35941472 65.08494238 -32.93088882 63.92192191 -28.4375 62.875 C-27.48713867 62.62169922 -27.48713867 62.62169922 -26.51757812 62.36328125 C-17.67233269 60.25766519 -9.33072419 60.49109075 0 60 C0 40.2 0 20.4 0 0 Z " fill="#0E4079" transform="translate(702,302)"/>
<path d="M0 0 C0 19.8 0 39.6 0 60 C5.61 60.33 11.22 60.66 17 61 C20.56079647 61.55917334 23.94764664 62.13581721 27.4375 62.9375 C28.65663086 63.19176758 28.65663086 63.19176758 29.90039062 63.45117188 C35.72713719 64.72713719 35.72713719 64.72713719 38 67 C37.39341553 67.00410889 36.78683105 67.00821777 36.16186523 67.01245117 C19.71553328 67.2052479 3.69241669 68.76919444 -12 74 C-12.06946967 65.18575308 -12.12279566 56.37160022 -12.15543652 47.5571394 C-12.17110146 43.46434557 -12.19235458 39.37173886 -12.22631836 35.27905273 C-12.25888267 31.33035248 -12.27684677 27.38183235 -12.28463173 23.43300819 C-12.29018054 21.92548092 -12.30101595 20.41796364 -12.31719017 18.91051292 C-12.3389263 16.80104541 -12.34196864 14.69232491 -12.34057617 12.58276367 C-12.34723801 11.38141281 -12.35389984 10.18006195 -12.36076355 8.94230652 C-12 6 -12 6 -10.60420227 4.14790344 C-8.75393507 2.82392571 -7.02217871 2.06123944 -4.875 1.3125 C-4.17117188 1.06113281 -3.46734375 0.80976563 -2.7421875 0.55078125 C-1 0 -1 0 0 0 Z " fill="#0D3F79" transform="translate(603,302)"/>
<path d="M0 0 C3.63 0 7.26 0 11 0 C10.54507427 11.79215373 9.75112136 23.32585761 8 35 C15.26 35.33 22.52 35.66 30 36 C30 44 30 44 29 46 C18.27807975 46.4519779 7.6459824 45.1148557 -3 44 C-3.51846582 29.13731306 -1.91221326 14.728595 0 0 Z " fill="#FDF6F6" transform="translate(386,695)"/>
<path d="M0 0 C1.16273438 0.0721875 2.32546875 0.144375 3.5234375 0.21875 C14.70560366 0.87860013 25.79775931 1.08961793 37 1 C37 9.25 37 17.5 37 26 C30.24489796 23.74829932 30.24489796 23.74829932 27.1875 21.75 C26.51066162 21.31107422 25.83382324 20.87214844 25.13647461 20.41992188 C24.43143799 19.95134766 23.72640137 19.48277344 23 19 C22.26467041 18.51595703 21.52934082 18.03191406 20.77172852 17.53320312 C18.50685315 16.0332017 16.25194311 14.51933588 14 13 C13.28956543 12.52304687 12.57913086 12.04609375 11.84716797 11.5546875 C9.86727329 10.21700919 7.90006217 8.86294724 5.9375 7.5 C5.33615234 7.09136719 4.73480469 6.68273437 4.11523438 6.26171875 C2.46484375 5.09375 2.46484375 5.09375 0 3 C0 2.01 0 1.02 0 0 Z " fill="#F4F6F8" transform="translate(504,781)"/>
<path d="M0 0 C13.125 -0.66964286 13.125 -0.66964286 16.75 2.375 C20.42653152 6.66428677 20.40836391 9.76349711 20.3359375 15.296875 C20 18 20 18 18 21.0625 C12.35064324 24.71104291 7.70368773 25 1 25 C0.67 16.75 0.34 8.5 0 0 Z " fill="#EA0506" transform="translate(666,706)"/>
<path d="M0 0 C3.35766982 0.32493579 4.79443211 1.55932081 7 4 C7.93375626 5.32830116 8.82950888 6.68404581 9.6875 8.0625 C10.34298828 9.10083984 10.34298828 9.10083984 11.01171875 10.16015625 C12 12 12 12 12 14 C12.99 14.33 13.98 14.66 15 15 C16.25 17.4375 16.25 17.4375 17 20 C16.67 20.66 16.34 21.32 16 22 C14.56260487 22.02712066 13.12506137 22.04645067 11.6875 22.0625 C10.48673828 22.07990234 10.48673828 22.07990234 9.26171875 22.09765625 C7 22 7 22 4 21 C-2.65741086 20.2011107 -9.29953118 19.87114483 -16 20 C-16.33 19.01 -16.66 18.02 -17 17 C-11.33333333 11.33333333 -5.66666667 5.66666667 0 0 Z " fill="#942127" transform="translate(303,632)"/>
<path d="M0 0 C4.9690172 1.20461023 7.2041886 4.29348405 10.25390625 8.125 C12.07351863 10.07894618 13.59994604 10.89874067 16 12 C17.8125 13.9375 17.8125 13.9375 19 16 C18.67 16.99 18.34 17.98 18 19 C17.14277344 18.98839844 16.28554688 18.97679687 15.40234375 18.96484375 C9.49172197 18.91819848 3.83575795 18.94956357 -2 20 C-8.66666667 21.11111111 -8.66666667 21.11111111 -12 20 C-9.77266076 12.20431265 -4.83723092 6.35289661 0 0 Z " fill="#962026" transform="translate(774,633)"/>
<path d="M0 0 C0.66 0 1.32 0 2 0 C2.99 4.62 3.98 9.24 5 14 C-2 14 -2 14 -6 12 C-4.02 8.04 -2.04 4.08 0 0 Z " fill="#EA1516" transform="translate(353,703)"/>
<path d="M0 0 C2 1 2 1 2.8515625 2.9609375 C3.10679687 3.75757813 3.36203125 4.55421875 3.625 5.375 C3.88539063 6.16648437 4.14578125 6.95796875 4.4140625 7.7734375 C5 10 5 10 5 13 C1.7 13 -1.6 13 -5 13 C-2.05357143 3.89285714 -2.05357143 3.89285714 0 0 Z " fill="#EA1010" transform="translate(445,711)"/>
<path d="M0 0 C1.16402344 0.14501953 1.16402344 0.14501953 2.3515625 0.29296875 C4.375 0.8125 4.375 0.8125 6.375 2.8125 C1.425 2.8125 -3.525 2.8125 -8.625 2.8125 C-4.0982896 -0.5825328 -4.0982896 -0.5825328 0 0 Z " fill="#30588A" transform="translate(634.625,366.1875)"/>
<path d="M0 0 C9.9 0 19.8 0 30 0 C30 0.33 30 0.66 30 1 C20.1 1 10.2 1 0 1 C0 0.67 0 0.34 0 0 Z " fill="#000000" transform="translate(532,154)"/>
<path d="M0 0 C1.77074917 -0.02705729 3.54161711 -0.04642195 5.3125 -0.0625 C6.29863281 -0.07410156 7.28476562 -0.08570313 8.30078125 -0.09765625 C11 0 11 0 14 1 C14 1.66 14 2.32 14 3 C9.25 3.125 9.25 3.125 7 2 C4.67085177 1.63858045 2.33746522 1.30300475 0 1 C0 0.67 0 0.34 0 0 Z " fill="#C7E1E5" transform="translate(384,660)"/>
<path d="M0 0 C1.65 0 3.3 0 5 0 C5 0.33 5 0.66 5 1 C3.35 1 1.7 1 0 1 C0 0.67 0 0.34 0 0 Z " fill="#FF0000" transform="translate(667,771)"/>
<path d="M0 0 C1.65 0 3.3 0 5 0 C5 0.33 5 0.66 5 1 C3.35 1 1.7 1 0 1 C0 0.67 0 0.34 0 0 Z " fill="#FF0000" transform="translate(408,771)"/>
<path d="M0 0 C1.65 0 3.3 0 5 0 C5 0.33 5 0.66 5 1 C3.35 1 1.7 1 0 1 C0 0.67 0 0.34 0 0 Z " fill="#99CCFF" transform="translate(445,666)"/>
<path d="M0 0 C4 1 4 1 4 1 Z " fill="#FF0000" transform="translate(640,773)"/>
<path d="M0 0 C4 1 4 1 4 1 Z " fill="#FF0000" transform="translate(436,773)"/>
<path d="M0 0 C4 1 4 1 4 1 Z " fill="#FF0000" transform="translate(631,671)"/>
<path d="M0 0 C4 1 4 1 4 1 Z " fill="#FFFFFF" transform="translate(493,668)"/>
<path d="M0 0 C4 1 4 1 4 1 Z " fill="#000000" transform="translate(630,666)"/>
<path d="M0 0 C4 1 4 1 4 1 Z " fill="#FFFFFF" transform="translate(417,664)"/>
<path d="M0 0 C3 1 3 1 3 1 Z " fill="#FF0000" transform="translate(915,713)"/>
<path d="M0 0 C3 1 3 1 3 1 Z " fill="#FF0000" transform="translate(872,713)"/>
<path d="M0 0 C3 1 3 1 3 1 Z " fill="#FF0000" transform="translate(205,713)"/>
<path d="M0 0 C3 1 3 1 3 1 Z " fill="#FF0000" transform="translate(162,713)"/>
<path d="M0 0 C3 1 3 1 3 1 Z " fill="#FF0000" transform="translate(446,671)"/>
<path d="M0 0 C3 1 3 1 3 1 Z " fill="#000000" transform="translate(659,664)"/>
<path d="M0 0 C2 1 2 1 2 1 Z " fill="#FF0000" transform="translate(756,762)"/>
<path d="M0 0 C2 1 2 1 2 1 Z " fill="#FF0000" transform="translate(322,762)"/>
<path d="M0 0 C2 1 2 1 2 1 Z " fill="#FF0000" transform="translate(662,669)"/>
<path d="M0 0 C2 1 2 1 2 1 Z " fill="#000000" transform="translate(583,668)"/>
<path d="M0 0 C2 1 2 1 2 1 Z " fill="#FF0000" transform="translate(733,662)"/>
<path d="M0 0 C2 1 2 1 2 1 Z " fill="#FF0000" transform="translate(345,662)"/>
<path d="M0 0 C2 1 2 1 2 1 Z " fill="#000000" transform="translate(748,655)"/>
<path d="M0 0 C2 1 2 1 2 1 Z " fill="#FF0000" transform="translate(905,613)"/>
<path d="M0 0 C2 1 2 1 2 1 Z " fill="#FF0000" transform="translate(212,613)"/>
<path d="M0 0 C2 1 2 1 2 1 Z " fill="#FF0000" transform="translate(173,613)"/>
<path d="" fill="#000000" transform="translate(0,0)"/>
<path d="" fill="#000000" transform="translate(0,0)"/>
<path d="" fill="#000000" transform="translate(0,0)"/>
<path d="" fill="#000000" transform="translate(0,0)"/>
<path d="" fill="#FF0000" transform="translate(0,0)"/>
<path d="" fill="#FF0000" transform="translate(0,0)"/>
<path d="" fill="#FF0000" transform="translate(0,0)"/>
<path d="" fill="#FF0000" transform="translate(0,0)"/>
<path d="" fill="#FF0000" transform="translate(0,0)"/>
<path d="" fill="#FF0000" transform="translate(0,0)"/>
<path d="" fill="#FF0000" transform="translate(0,0)"/>
<path d="" fill="#FF0000" transform="translate(0,0)"/>
<path d="" fill="#FF0000" transform="translate(0,0)"/>
<path d="" fill="#FF0000" transform="translate(0,0)"/>
<path d="" fill="#FF0000" transform="translate(0,0)"/>
<path d="" fill="#000000" transform="translate(0,0)"/>
<path d="" fill="#000000" transform="translate(0,0)"/>
<path d="" fill="#000000" transform="translate(0,0)"/>
<path d="" fill="#000000" transform="translate(0,0)"/>
<path d="" fill="#FF0000" transform="translate(0,0)"/>
<path d="" fill="#FF0000" transform="translate(0,0)"/>
<path d="" fill="#FF0000" transform="translate(0,0)"/>
<path d="" fill="#000000" transform="translate(0,0)"/>
<path d="" fill="#000000" transform="translate(0,0)"/>
<path d="" fill="#000000" transform="translate(0,0)"/>
<path d="" fill="#000000" transform="translate(0,0)"/>
<path d="" fill="#000000" transform="translate(0,0)"/>
<path d="" fill="#000000" transform="translate(0,0)"/>
<path d="" fill="#000000" transform="translate(0,0)"/>
</svg>
